<svg width="215" height="69" viewBox="0 0 215 69" fill="none" xmlns="http://www.w3.org/2000/svg">
<path fill-rule="evenodd" clip-rule="evenodd" d="M106.033 17.3912L106.071 17.4293C106.069 17.4269 106.021 17.4037 106.033 17.3912ZM106.288 17.9014C106.447 18.0841 106.428 18.0466 106.53 18.2973C106.623 18.5217 106.63 18.6342 106.7 18.8932C108.171 24.2904 106.158 28.4845 106.161 33.7246C106.162 35.4939 106.12 38.064 106.671 39.2118C108.483 39.2118 108.236 39.4332 109.019 38.2426C111.557 34.3872 113.207 30.8021 114.106 26.1032C114.266 25.2692 114.444 24.0231 114.452 23.0039C114.458 22.2919 114.578 22.186 114.589 21.4769C114.603 20.7 114.467 20.4845 114.451 19.8195C114.32 14.4675 112.084 8.96847 109.146 4.5797C108.65 3.83852 106.683 1.02559 106.16 0.674938C104.652 1.68521 101.411 7.34202 100.799 8.71247C99.964 10.5854 99.5259 11.5635 98.9395 13.6156C98.6769 14.5336 98.5072 15.3319 98.3221 16.3166C97.7875 19.1664 97.7684 22.7271 98.2471 25.5597C98.6376 27.8701 98.9633 28.7846 99.6681 30.9022C100.711 34.0366 102.075 36.019 103.706 38.6039C104.067 39.176 103.995 39.2124 104.884 39.2124C104.608 35.8922 104.461 34.4015 104.92 30.954C105.349 27.735 107.054 22.8968 106.493 19.2272C106.423 18.7682 106.297 18.3425 106.287 17.902L106.288 17.9014Z" fill="#4B8077"/>
<path fill-rule="evenodd" clip-rule="evenodd" d="M72.3479 18.9224C72.3479 22.1026 74.5982 29.7008 76.0907 32.6614C78.8679 38.1717 82.3428 41.9074 88.3134 43.9172C89.5683 44.3393 91.6496 44.8263 93.2737 44.8263C93.8458 44.8263 94.6995 43.2528 95.8259 42.6569C95.6359 42.3735 95.5127 42.3033 95.2978 42.0366L91.3918 37.7758C91.1793 37.5639 91.0126 37.421 90.8185 37.2001C90.2274 36.5292 87.3341 33.2531 86.8941 32.9584C86.1393 33.134 85.3737 33.7139 84.0104 32.7798L79.0483 27.2784C78.8185 26.9742 78.7661 27.0313 78.728 26.5777L79.0084 26.3479C79.574 26.4777 80.2491 27.4058 80.6229 27.8725C80.9438 28.2738 83.3216 31.1963 83.3216 29.8955C83.3216 29.5514 82.5119 28.9382 81.9368 28.2172C81.7481 27.9809 81.5981 27.8487 81.3754 27.6302C81.1837 27.4415 81.0403 27.3165 80.8658 27.1188C80.1639 26.3217 79.2013 25.4287 80.1312 25.4287C80.9039 25.4287 83.5091 29.1293 84.0866 29.1293H84.4694C84.4586 28.6453 84.4795 28.6536 84.2318 28.3458C84.2152 28.325 84.1872 28.3 84.1693 28.2809L82.5875 26.6729C82.116 26.2014 79.8943 24.4077 81.2796 24.4077C81.9612 24.4077 84.4979 27.8773 85.3629 28.1083L85.7303 27.8344C85.6136 27.3594 84.2789 26.1949 83.8633 25.7794C82.3637 24.2797 81.9172 24.3684 81.9172 23.3867C82.8667 23.3867 82.5536 23.5385 83.1745 24.0434C83.5621 24.3583 83.6925 24.4565 84.0544 24.8221L86.4756 27.2492C86.8203 27.5808 87.0257 27.6677 87.374 28.0095C89.2118 29.8109 88.4634 30.5438 88.1687 31.8083C88.6236 32.1131 88.945 32.5209 89.3487 32.9251C89.5689 33.1454 89.6975 33.2847 89.922 33.5002C91.0608 34.5908 91.8199 35.541 93.0361 36.5108C94.272 37.4966 96.8891 40.5971 97.8654 41.2514C98.1679 41.0912 98.3858 40.9555 98.7584 40.8686C98.5167 37.961 96.0866 31.2159 94.5251 28.6411C94.1458 28.016 93.8291 27.5344 93.4267 26.9325C92.2402 25.1584 91.0477 23.9761 89.4731 22.592C88.6188 21.8407 87.2448 20.9542 86.1714 20.4065C83.5805 19.0855 80.2753 18.2818 77.195 18.2818C76.0121 18.2818 73.0766 18.5693 72.3467 18.92L72.3479 18.9224Z" fill="#4B8077"/>
<path fill-rule="evenodd" clip-rule="evenodd" d="M113.689 40.7435C114.176 40.8573 114.223 41.0126 114.71 41.1263C115.33 40.7108 118.642 37.1888 119.666 36.2571C119.693 36.2321 119.774 36.1619 119.8 36.1363C119.819 36.1178 119.846 36.0916 119.865 36.0732L124.152 31.8112C124.016 31.2266 123.897 31.2951 123.897 30.5348C123.897 26.0348 132.318 22.4949 132.318 26.1961C132.318 28.7858 130.42 31.7934 128.11 32.834C127.056 33.3091 126.439 33.2245 125.301 32.9596C125.209 33.3013 123.645 34.9385 123.227 35.3522C123.035 35.5422 122.893 35.6654 122.717 35.8636C122.478 36.1357 122.462 36.2274 122.208 36.5024L116.752 42.4027C117.257 43.1564 118.69 43.8345 118.921 44.6995C125.639 44.6995 130.084 41.9021 133.905 36.8429L135.21 34.8307C138.047 29.5895 139.002 25.9669 139.887 19.982C140.131 18.3306 139.904 18.6926 138.2 18.5283C133.863 18.1103 130.113 18.2925 126.151 20.2839C124.806 20.9596 123.883 21.4924 122.778 22.3973C118.542 25.8675 115.972 30.8938 114.582 36.1488C114.276 37.3049 113.69 39.4005 113.69 40.7435H113.689Z" fill="#4B8077"/>
<path fill-rule="evenodd" clip-rule="evenodd" d="M53.2088 63.9679C50.7227 63.9679 48.8123 62.5754 48.0866 60.5412C47.4627 58.7927 47.4329 57.7878 48.0532 56.0048C48.2747 55.3666 48.7361 54.7242 49.1552 54.2992C49.663 53.7842 49.9886 53.4925 50.6965 53.1609C52.8087 52.1733 55.3502 52.6442 56.8153 54.2361C57.1463 54.5956 57.6821 55.3577 57.8803 55.8512C59.5062 59.9036 56.8861 63.9679 53.2094 63.9679H53.2088ZM58.0571 50.6968C56.9081 49.9271 55.7234 48.5275 52.9534 48.5275C50.9721 48.5275 50.1458 48.5251 48.2717 49.4603C45.4213 50.882 43.1287 54.3688 43.1287 57.5878C43.1287 59.4815 43.134 60.8663 43.977 62.6094C44.4301 63.5452 45.0313 64.5299 45.71 65.2151C46.5423 66.0551 47.0572 66.5106 48.1896 67.0743C50.2559 68.1025 50.8673 68.0519 53.0814 68.0519C54.1643 68.0519 55.4764 67.606 56.1705 67.1857C57.8881 66.1444 57.744 65.8384 58.4405 65.3723V67.6691H62.5239V43.0409H58.0577V50.6974L58.0571 50.6968Z" fill="#FC9401"/>
<path fill-rule="evenodd" clip-rule="evenodd" d="M205.685 63.9679C203.879 63.9679 202.626 63.4047 201.57 62.2135C197.688 57.8372 202 50.6605 207.642 53.0788C212.772 55.2773 211.41 63.9679 205.685 63.9679ZM210.534 50.6968C209.647 50.1033 210.04 50.0378 208.41 49.2484C205.659 47.9173 201.736 48.4263 199.412 50.2938C199.156 50.4992 199.059 50.6224 198.794 50.8243C198.28 51.216 197.618 52.0709 197.262 52.6096C195.406 55.4178 195.003 59.6131 196.454 62.61C197.412 64.5888 198.703 66.0974 200.666 67.0749C202.733 68.1031 203.344 68.0525 205.558 68.0525C207.135 68.0525 208.783 67.2708 209.859 66.3564C210.265 66.0123 210.492 65.6575 210.917 65.3729V67.6697H215V43.0415H210.534V50.698V50.6968Z" fill="#4B8077"/>
<path fill-rule="evenodd" clip-rule="evenodd" d="M11.9953 49.6758L12.365 50.4545C12.4799 50.8117 12.5436 51.0379 12.6871 51.4082L14.5475 56.8216H9.5711C9.63778 56.0215 11.7298 50.8177 11.9953 49.6758ZM0.00119 67.6685H5.10494C5.22818 67.1374 5.54727 66.5451 5.761 66.0277L7.14275 62.8159C7.50114 61.9991 7.59699 61.2883 8.03932 61.2883H16.2054C16.6883 61.2883 16.7091 61.9087 17.0627 62.7278L19.1398 67.6685H24.2436L19.0303 55.2725C17.6104 51.8333 15.4529 47.0528 14.17 43.6713C13.817 42.742 13.9837 43.0403 10.4629 43.0403C10.0462 43.0403 9.96997 43.5618 9.64194 44.3887L0 67.6685H0.00119Z" fill="#FC9401"/>
<path fill-rule="evenodd" clip-rule="evenodd" d="M93.6564 54.5248V55.8012C93.6564 62.2331 99.6198 68.0513 106.033 68.0513C109.215 68.0513 111.684 67.5191 114.056 65.7384C116.372 64.0007 116.864 62.9755 118.027 60.7775C116.878 60.7775 115.73 60.7775 114.582 60.7775C112.273 60.7775 112.971 60.5668 111.829 61.4699C109.878 63.013 109.142 63.5851 106.288 63.5851C105.028 63.5851 103.935 63.2363 103.096 62.8219C98.4535 60.5275 96.9586 55.3249 99.5287 50.8284C100.16 49.7241 101.468 48.5858 102.67 47.972C105.978 46.2825 111.171 47.1165 112.795 50.1866H118.026C117.851 49.4347 116.789 47.9125 116.316 47.3035C115.716 46.5337 114.691 45.5865 113.89 45.0079C108.92 41.4192 101.762 41.9753 97.3843 46.2587C95.4066 48.1935 93.6558 51.6607 93.6558 54.5248H93.6564Z" fill="#4B8077"/>
<path fill-rule="evenodd" clip-rule="evenodd" d="M73.8792 52.8662C75.0162 52.8662 76.473 53.2943 77.1469 53.8086C78.0399 54.4915 78.5686 55.2082 78.8549 56.4388H68.7748C68.8843 55.9691 69.2011 55.3452 69.4678 54.9624C70.4173 53.5979 72.0158 52.8656 73.8786 52.8656L73.8792 52.8662ZM64.0544 57.7152V59.2464C64.0544 62.1671 66.0851 64.9329 68.1098 66.2921C72.3331 69.1276 78.1548 68.646 81.625 64.568C82.0018 64.1251 82.7537 62.8636 82.8109 62.1807H77.8345C77.7101 62.6475 76.7719 63.2744 76.323 63.4768C73.6315 64.6883 69.6761 63.7125 68.9028 60.3942H83.1937C83.3645 58.345 83.511 56.5602 82.515 54.4373C81.7917 52.896 81.6976 52.8877 80.7183 51.6404C79.6312 50.2557 76.5432 48.7817 74.5173 48.7817C72.6438 48.7817 71.3472 48.796 69.6237 49.6306C66.5137 51.1356 64.0544 54.3206 64.0544 57.7146V57.7152Z" fill="#FC9401"/>
<path fill-rule="evenodd" clip-rule="evenodd" d="M185.27 52.8662C186.407 52.8662 187.864 53.2943 188.538 53.8086C189.431 54.4915 189.959 55.2082 190.246 56.4388H180.165C180.68 54.2313 182.865 52.8656 185.269 52.8656L185.27 52.8662ZM175.445 57.7152V59.2464C175.445 62.167 177.476 64.9329 179.5 66.2921C180.028 66.6463 180.377 66.8177 180.973 67.1166C184.784 69.0318 189.979 68.137 193.016 64.568C193.393 64.1251 194.145 62.8636 194.202 62.1807H189.226C189.101 62.6475 188.163 63.2744 187.714 63.4768C185.022 64.6883 181.067 63.7125 180.294 60.3942H194.584C194.755 58.345 194.902 56.5602 193.906 54.4373C192.875 52.2423 191.678 50.832 189.524 49.7598C185.731 47.872 181.329 48.7031 178.282 51.491C177.938 51.8053 177.583 52.2685 177.285 52.6632C176.354 53.8955 175.446 56.0423 175.446 57.7146L175.445 57.7152Z" fill="#4B8077"/>
<path fill-rule="evenodd" clip-rule="evenodd" d="M159.623 67.6685H164.089V59.2464C164.468 59.5238 165.28 60.796 165.638 61.2699L167.952 64.443C168.239 64.8264 168.439 65.0788 168.708 65.4735C169.024 65.9379 170.085 67.1851 170.215 67.6679H176.339L169.733 59.4714C168.559 58.0343 168.303 58.6677 170.36 55.9459C170.945 55.1707 171.444 54.4575 172.038 53.6681L175.318 49.1645H169.832C169.728 49.5538 167.425 52.8376 166.999 53.4776L164.09 57.714V43.0391H159.624V67.6673L159.623 67.6685Z" fill="#4B8077"/>
<path fill-rule="evenodd" clip-rule="evenodd" d="M143.163 58.3534C143.163 57.6658 143.459 56.6311 143.65 56.1608C145.646 51.2642 153.376 51.8464 153.868 58.248C153.915 58.8606 153.641 59.9941 153.448 60.4715C151.954 64.1459 147.59 65.1568 144.788 62.3439C143.837 61.3896 143.164 59.7202 143.164 58.354L143.163 58.3534ZM138.697 57.9706C138.697 61.1853 139.478 63.1541 141.472 65.1484C148.053 71.7298 158.347 66.17 158.347 59.119C158.347 56.9043 158.34 56.4031 157.438 54.2861C156.205 51.3928 152.477 48.7829 149.288 48.7829H147.756C144.406 48.7829 140.989 51.4237 139.613 54.2932C139.126 55.3089 138.697 56.5055 138.697 57.9706Z" fill="#4B8077"/>
<path fill-rule="evenodd" clip-rule="evenodd" d="M123.003 58.3534C123.003 55.6089 125.377 52.8662 128.234 52.8662C131.367 52.8662 133.483 55.322 133.707 58.2474C133.909 60.8853 131.498 63.9679 128.489 63.9679C125.227 63.9679 123.002 61.1842 123.002 58.3534H123.003ZM118.537 57.9706C118.537 61.1853 119.317 63.1541 121.312 65.1484C122.136 65.9724 122.873 66.5207 123.979 67.0743C130.606 70.3909 138.186 65.0538 138.186 59.1184C138.186 56.9037 138.18 56.4025 137.277 54.2855C136.044 51.3922 132.316 48.7823 129.127 48.7823H127.596C124.246 48.7823 120.828 51.4232 119.453 54.2926C118.966 55.3083 118.537 56.5049 118.537 57.97V57.9706Z" fill="#4B8077"/>
<path fill-rule="evenodd" clip-rule="evenodd" d="M29.2211 50.8243V49.1651H25.1377V67.6679H29.6038V58.2248C29.6038 55.5 30.432 52.8656 33.5592 52.8656C36.9663 52.8656 37.1318 55.9732 37.1318 59.1184V67.6679H41.5979V56.821C41.5979 54.4599 41.1336 52.4138 40.0316 51.1142C38.1909 48.9436 36.3662 48.7817 33.6872 48.7817C32.9044 48.7817 31.7322 49.171 31.188 49.4722C30.1426 50.0509 29.6753 50.7022 29.2216 50.8237L29.2211 50.8243Z" fill="#FC9401"/>
<path fill-rule="evenodd" clip-rule="evenodd" d="M89.063 50.8243V49.1651H84.9802V67.6679H89.4464V57.2044C89.4464 52.3739 93.4017 53.602 93.4017 52.7382V48.6549C91.3068 48.6549 90.5352 49.0651 89.4767 50.3444C89.3243 50.5284 89.2011 50.6665 89.0636 50.8243H89.063Z" fill="#FC9401"/>
</svg>
