<svg width="336" height="220" viewBox="0 0 336 220" fill="none" xmlns="http://www.w3.org/2000/svg">
<path fill-rule="evenodd" clip-rule="evenodd" d="M167.355 83.0515L167.544 83.2406C167.531 83.2282 167.291 83.1149 167.355 83.0515ZM168.623 85.5878C169.412 86.496 169.314 86.3107 169.826 87.5539C170.285 88.6694 170.319 89.2282 170.67 90.5136C177.978 117.327 167.974 138.165 167.988 164.199C167.994 172.988 167.789 185.758 170.524 191.46C179.526 191.46 178.296 192.56 182.19 186.644C194.799 167.489 202.997 149.677 207.463 126.333C208.256 122.19 209.141 115.998 209.182 110.936C209.211 107.396 209.808 106.873 209.867 103.349C209.93 99.4886 209.257 98.4163 209.176 95.113C208.526 68.5248 197.42 41.2032 182.823 19.3987C180.357 15.7152 170.587 1.74048 167.988 0C160.494 5.01888 144.392 33.1229 141.355 39.9312C137.206 49.2355 135.028 54.097 132.116 64.2922C130.813 68.8522 129.969 72.8179 129.051 77.7101C126.394 91.8691 126.299 109.558 128.677 123.632C130.618 135.11 132.236 139.655 135.736 150.173C140.919 165.747 147.694 175.594 155.797 188.436C157.592 191.279 157.233 191.46 161.649 191.46C160.276 174.964 159.547 167.556 161.829 150.431C163.959 134.436 172.434 110.403 169.644 92.1715C169.295 89.8906 168.671 87.7747 168.622 85.5859L168.623 85.5878Z" fill="#4B8077"/>
<path fill-rule="evenodd" clip-rule="evenodd" d="M0.00192041 90.6595C0.00192041 106.458 11.1811 144.207 18.5952 158.918C32.3923 186.293 49.657 204.855 79.319 214.839C85.5523 216.938 95.8953 219.355 103.963 219.355C106.807 219.355 111.048 211.538 116.642 208.578C115.699 207.17 115.085 206.82 114.017 205.498L94.6128 184.33C93.5578 183.277 92.7283 182.565 91.7645 181.472C88.8278 178.137 74.4547 161.862 72.2669 160.397C68.5171 161.27 64.7126 164.15 57.9408 159.509L33.288 132.179C32.1446 130.667 31.8835 130.952 31.6973 128.699L33.0912 127.557C35.9002 128.201 39.2563 132.814 41.111 135.132C42.7056 137.124 54.5174 151.644 54.5174 145.182C54.5174 143.472 50.4941 140.426 47.639 136.846C46.7011 135.67 45.9542 135.015 44.8512 133.929C43.8989 132.991 43.1846 132.371 42.3197 131.388C38.832 127.428 34.0493 122.993 38.6698 122.993C42.5078 122.993 55.4515 141.378 58.321 141.378H60.2227C60.169 138.972 60.2746 139.016 59.0419 137.487C58.9594 137.386 58.8192 137.261 58.7318 137.164L50.8723 129.175C48.5299 126.831 37.4899 117.922 44.375 117.922C47.76 117.922 60.3638 135.159 64.6598 136.307L66.4858 134.947C65.9078 132.587 59.2752 126.801 57.2122 124.737C49.7616 117.285 47.545 117.728 47.545 112.85C52.2614 112.85 50.7062 113.605 53.7917 116.112C55.7174 117.677 56.3635 118.164 58.1635 119.981L70.1933 132.04C71.9059 133.689 72.9245 134.119 74.6573 135.818C83.7859 144.767 80.0688 148.41 78.6058 154.692C80.8666 156.206 82.463 158.232 84.4694 160.239C85.5648 161.336 86.2022 162.026 87.3187 163.095C92.9779 168.515 96.7478 173.235 102.789 178.054C108.929 182.953 121.932 198.356 126.783 201.605C128.286 200.81 129.369 200.135 131.22 199.703C130.019 185.257 117.947 151.748 110.187 138.957C108.301 135.85 106.73 133.459 104.729 130.468C98.8339 121.655 92.9088 115.781 85.0877 108.903C80.8426 105.17 74.0179 100.767 68.6842 98.0467C55.8115 91.4813 39.3917 87.4905 24.0893 87.4905C18.2131 87.4905 3.6288 88.919 0 90.6605L0.00192041 90.6595Z" fill="#4B8077"/>
<path fill-rule="evenodd" clip-rule="evenodd" d="M205.39 199.068C207.808 199.632 208.043 200.407 210.462 200.97C213.542 198.906 230 181.409 235.085 176.78C235.221 176.656 235.62 176.307 235.752 176.179C235.846 176.089 235.98 175.957 236.072 175.864L257.371 154.691C256.694 151.786 256.103 152.125 256.103 148.351C256.103 125.993 297.941 108.406 297.941 126.796C297.941 139.66 288.512 154.604 277.033 159.774C271.794 162.133 268.733 161.714 263.076 160.396C262.622 162.094 254.849 170.226 252.775 172.283C251.822 173.227 251.112 173.838 250.244 174.824C249.054 176.175 248.977 176.629 247.712 177.996L220.604 207.31C223.111 211.054 230.233 214.422 231.381 218.722C264.757 218.722 286.839 204.823 305.821 179.688L312.307 169.691C326.401 143.652 331.146 125.653 335.543 95.9213C336.757 87.7181 335.625 89.5142 327.161 88.6992C305.616 86.6237 286.983 87.529 267.303 97.4218C260.621 100.78 256.033 103.427 250.545 107.922C229.498 125.162 216.73 150.133 209.824 176.242C208.306 181.985 205.392 192.397 205.392 199.069L205.39 199.068Z" fill="#4B8077"/>
</svg>
